#!OML:ASF F:\VICON\USERDATA\INSTALL\rory3\rory3.ASF
:FULLY-SPECIFIED
:DEGREES
4031
root 16.4934 17.7942 -3.87118 1255.81 -16.6414 898.518
lowerback 11.5759 1.03683 -4.17579
upperback 0.62792 0.731718 -0.144245
thorax -5.89444 0.430346 2.08752
lowerneck -16.9333 -0.829937 -10.2139
upperneck 35.3344 -2.3485 5.29711
head 15.4011 -2.53389 3.38821
rclavicle -8.35517e-015 1.53064e-014
rhumerus -36.1295 -12.8452 -79.8406
rradius 31.8333
rwrist 4.24484
rhand -16.0307 4.1039
rfingers 7.12502
rthumb 10.1706 -25.6303
lclavicle -8.35517e-015 1.53064e-014
lhumerus -37.1188 -0.663085 87.4228
lradius 39.7291
lwrist -1.62799
lhand -17.1979 29.3612
lfingers 7.12502
lthumb 9.04441 59.1473
rfemur -17.8819 -4.28432 13.7193
rtibia 57.3759
rfoot -11.3374 -4.7851
rtoes -5.0646
lfemur -1.6684 -1.63562 -31.1654
ltibia 19.7807
lfoot -9.39451 -7.65264
ltoes 12.444
4032
root 16.4994 17.7707 -3.95179 1255.91 -17.6483 898.456
lowerback 11.5325 1.03065 -4.3445
upperback 0.656933 0.70623 -0.111814
thorax -5.8405 0.421225 2.2216
lowerneck -16.9301 -0.92563 -10.2717
upperneck 35.1897 -2.42194 5.31955
head 15.3414 -2.54576 3.39597
rclavicle -8.0837e-014 -9.93923e-017
rhumerus -36.4154 -12.7459 -79.8695
rradius 32.3071
rwrist 3.46679
rhand -16.5066 3.39505
rfingers 7.12502
rthumb 9.71143 -26.3611
lclavicle -8.0837e-014 -9.93923e-017
lhumerus -36.9639 -1.2013 87.8101
lradius 40.3923
lwrist -1.86064
lhand -16.54 30.6382
lfingers 7.12502
lthumb 9.67923 60.3958
rfemur -18.2028 -3.61465 13.5689
rtibia 56.2336
rfoot -11.4421 -4.44706
rtoes -4.56111
lfemur -1.61009 -2.00357 -31.1702
ltibia 20.1539
lfoot -9.69216 -8.24595
ltoes 12.2713
4033
root 16.5019 17.7697 -4.03396 1255.98 -18.6048 898.467
lowerback 11.4833 1.01765 -4.43125
upperback 0.735201 0.683885 -0.0532856
thorax -5.73051 0.40902 2.33672
lowerneck -17.2044 -1.02869 -10.2559
upperneck 35.2114 -2.43816 5.15447
head 15.4191 -2.55312 3.3245
rclavicle 3.3489e-014 -5.66536e-015
rhumerus -36.644 -12.6294 -79.8319
rradius 32.6658
rwrist 2.9284
rhand -16.865 3.82004
rfingers 7.12502
rthumb 9.36558 -25.9519
lclavicle 3.3489e-014 -5.66536e-015
lhumerus -36.6289 -1.50339 88.126
lradius 40.8112
lwrist -1.8397
lhand -16.4517 30.4403
lfingers 7.12502
lthumb 9.76437 60.194
rfemur -18.4789 -2.89971 13.4448
rtibia 54.9106
rfoot -11.7919 -4.27225
rtoes -5.97292
lfemur -1.45039 -2.36922 -31.0929
ltibia 20.3664
lfoot -9.9823 -8.85274
ltoes 12.1394
4034
root 16.5057 17.7838 -4.11467 1256.09 -19.7158 898.438
lowerback 11.5435 0.947605 -4.5304
upperback 0.698783 0.575355 -0.0585359
thorax -5.79574 0.360975 2.40441
lowerneck -17.2364 -1.02095 -10.2045
upperneck 35.2712 -2.40909 5.10873
head 15.4515 -2.53642 3.30406
rclavicle -3.11098e-014 -7.15625e-015
rhumerus -36.8361 -12.6903 -79.7797
rradius 32.512
rwrist 2.86205
rhand -16.4912 4.2648
rfingers 7.12502
rthumb 9.72631 -25.4906
lclavicle -3.11098e-014 -7.15625e-015
lhumerus -36.5377 -1.8904 88.3346
lradius 41.3065
lwrist -1.72248
lhand -16.3482 30.7937
lfingers 7.12502
lthumb 9.86427 60.5427
rfemur -18.7175 -2.20578 13.2293
rtibia 53.4675
rfoot -12.498 -4.2526
rtoes -8.65067
lfemur -1.25443 -2.74814 -31.03
ltibia 20.4842
lfoot -10.2918 -9.66943
ltoes 12.447
4035
root 16.5157 17.7865 -4.19172 1256.17 -20.9513 898.564
lowerback 11.6192 0.867837 -4.54087
upperback 0.648937 0.470114 0.000639263
thorax -5.88346 0.314746 2.48948
lowerneck -17.1273 -1.04996 -10.2132
upperneck 35.1938 -2.44358 5.14308
head 15.3929 -2.53563 3.31487
rclavicle 7.75136e-014 -1.16289e-014
rhumerus -36.8703 -12.93 -79.6008
rradius 31.6157
rwrist 3.6482
rhand -16.7329 6.48689
rfingers 7.12502
rthumb 9.49304 -23.2793
lclavicle 7.75136e-014 -1.16289e-014
lhumerus -36.5479 -2.47646 88.6283
lradius 41.8166
lwrist -1.56538
lhand -16.4457 30.9147
lfingers 7.12502
lthumb 9.77017 60.6681
rfemur -18.8727 -1.55687 13.1684
rtibia 51.9559
rfoot -12.9109 -4.27995
rtoes -9.22344
lfemur -1.05126 -3.26928 -30.791
ltibia 20.4668
lfoot -10.3342 -10.529
ltoes 13.4154
4036
root 16.5202 17.7801 -4.27062 1256.3 -22.0885 898.49
lowerback 11.6248 0.847449 -4.69387
upperback 0.634642 0.424895 0.0203943
thorax -5.89981 0.298153 2.60412
lowerneck -17.0312 -1.14353 -10.3327
upperneck 35.0521 -2.54759 5.24935
head 15.3179 -2.56235 3.36326
rclavicle 2.07792e-015 -4.67144e-015
rhumerus -36.8117 -13.0254 -79.5017
rradius 31.6283
rwrist 2.93089
rhand -15.573 5.57605
rfingers 7.12502
rthumb 10.6121 -24.136
lclavicle 2.07792e-015 -4.67144e-015
lhumerus -36.5007 -2.95585 88.9469
lradius 42.2332
lwrist -1.524
lhand -16.4786 30.4849
lfingers 7.12502
lthumb 9.73843 60.2398
rfemur -19.0238 -0.960087 12.8381
rtibia 50.4246
rfoot -13.0402 -4.10789
rtoes -8.99107
lfemur -0.848737 -3.8059 -30.7924
ltibia 20.4684
lfoot -10.3256 -11.1765
ltoes 14.0822
4037
root 16.5224 17.781 -4.35002 1256.47 -23.149 898.384
lowerback 11.7689 0.832663 -4.82144
upperback 0.455518 0.38131 -0.000297903
thorax -6.16805 0.2924 2.66058
lowerneck -16.7693 -1.11606 -10.4981
upperneck 35.0645 -2.56233 5.45157
head 15.2685 -2.56863 3.47678
rclavicle -6.46858e-014 3.27995e-015
rhumerus -37.0637 -12.9129 -79.4744
rradius 31.9689
rwrist 1.64664
rhand -14.7234 3.53377
rfingers 7.12502
rthumb 11.4315 -26.1346
lclavicle -6.46858e-014 3.27995e-015
lhumerus -36.6789 -3.20496 89.1869
lradius 42.6307
lwrist -1.54613
lhand -16.3577 30.2444
lfingers 7.12502
lthumb 9.85502 59.9938
rfemur -19.2259 -0.234692 12.463
rtibia 48.863
rfoot -13.253 -4.05484
rtoes -9.87009
lfemur -0.765858 -4.3008 -30.8237
ltibia 20.6117
lfoot -10.5191 -11.7681
ltoes 14.1225
